External Loads File
version=1
nRows=70
nColumns=13
Range=5.000000e-03-10 seconds
endheader
time 	forceRightX 	forceRightY 	forceRightZ 	pointRightX 	pointRightY 	pointRightZ 	forceLeftX 	forceLeftY 	forceLeftZ 	pointLeftX 	pointLeftY 	pointLeftZ 		
7.505000 37.414596 29.866204 -0.000000 0.241593 0.507036 -0.151394 8.688208 312.647445 -0.000000 0.264653 0.156403 -0.379098
7.510000 28.671026 28.732130 -0.000000 0.247161 0.507634 -0.151427 9.297017 300.682672 -0.000000 0.259746 0.156191 -0.378986
7.515000 20.865564 28.175499 -0.000000 0.252296 0.508004 -0.151447 9.499272 288.838985 -0.000000 0.255192 0.156049 -0.378890
7.520000 14.041001 28.358234 -0.000000 0.257346 0.508155 -0.151461 9.541296 277.183335 -0.000000 0.251057 0.156077 -0.378745
7.525000 8.118515 29.432646 -0.000000 0.261682 0.508142 -0.151277 9.045226 265.845151 -0.000000 0.247229 0.156305 -0.378723
7.530000 3.021988 31.444350 -0.000000 0.265487 0.507964 -0.151260 8.144225 254.924377 -0.000000 0.243826 0.156555 -0.378616
7.535000 -1.332728 34.354708 -0.000000 0.268895 0.507717 -0.151246 6.988992 244.509360 -0.000000 0.240849 0.156851 -0.378535
7.540000 -5.009912 38.036523 -0.000000 0.271882 0.507480 -0.151128 5.645715 234.627077 -0.000000 0.238242 0.157282 -0.378480
7.545000 -8.033095 42.295373 -0.000000 0.274483 0.507140 -0.151015 4.154096 225.193967 -0.000000 0.236008 0.157619 -0.378451
7.550000 -10.432981 46.899208 -0.000000 0.276540 0.506874 -0.150924 2.407162 216.068384 -0.000000 0.234148 0.157978 -0.378375
7.555000 -12.205015 51.640992 -0.000000 0.278179 0.506536 -0.150834 0.511954 207.092844 -0.000000 0.232586 0.158334 -0.378410
7.560000 -13.407660 56.378120 -0.000000 0.279316 0.506306 -0.150784 -1.632697 198.151966 -0.000000 0.231359 0.158689 -0.378407
7.565000 -14.087271 61.075746 -0.000000 0.280025 0.506148 -0.150768 -3.938051 189.300922 -0.000000 0.230473 0.158944 -0.378431
7.570000 -14.298247 65.781990 -0.000000 0.280337 0.506023 -0.150818 -6.250158 180.805932 -0.000000 0.229928 0.159096 -0.378384
7.575000 -14.093949 70.586107 -0.000000 0.280212 0.505904 -0.150814 -8.403880 173.000179 -0.000000 0.229669 0.159217 -0.378384
7.580000 -13.517309 75.586310 -0.000000 0.279688 0.505812 -0.150836 -10.261946 166.172973 -0.000000 0.229689 0.159268 -0.378401
7.585000 -12.614197 80.869807 -0.000000 0.278730 0.505756 -0.150829 -11.759918 160.555845 -0.000000 0.229968 0.159227 -0.378419
7.590000 -11.392027 86.499802 -0.000000 0.277458 0.505760 -0.150843 -12.818934 156.292760 -0.000000 0.230528 0.159159 -0.378431
7.595000 -9.871508 92.491089 -0.000000 0.275782 0.505757 -0.150795 -13.432971 153.411479 -0.000000 0.231271 0.159049 -0.378474
7.600000 -8.106559 98.805870 -0.000000 0.273773 0.505842 -0.150795 -13.642580 151.907735 -0.000000 0.232331 0.158876 -0.378456
7.605000 -6.109703 105.342767 -0.000000 0.271513 0.505993 -0.150805 -13.392208 151.839833 -0.000000 0.233638 0.158586 -0.378475
7.610000 -3.930288 111.903099 -0.000000 0.269068 0.506111 -0.150700 -12.670305 153.284885 -0.000000 0.235201 0.158350 -0.378487
7.615000 -1.720467 118.188904 -0.000000 0.266281 0.506226 -0.150619 -11.602061 156.292818 -0.000000 0.237033 0.158071 -0.378550
7.620000 0.450727 123.819859 -0.000000 0.263274 0.506354 -0.150586 -10.220226 160.926453 -0.000000 0.239141 0.157715 -0.378522
7.625000 2.499254 128.344366 -0.000000 0.260029 0.506552 -0.150480 -8.647012 167.239840 -0.000000 0.241501 0.157341 -0.378569
7.630000 4.356286 131.280534 -0.000000 0.256501 0.506687 -0.150418 -7.086149 175.271469 -0.000000 0.244149 0.157043 -0.378620
7.635000 6.097910 132.171826 -0.000000 0.252836 0.506812 -0.150431 -5.666745 185.095436 -0.000000 0.247096 0.156768 -0.378676
7.640000 7.802619 130.663621 -0.000000 0.248982 0.506994 -0.150488 -4.621702 196.810542 -0.000000 0.250332 0.156516 -0.378718
7.645000 9.578174 126.580511 -0.000000 0.244964 0.507020 -0.150562 -4.230993 210.492900 -0.000000 0.253931 0.156361 -0.378791
7.650000 11.591927 119.980408 -0.000000 0.240861 0.506903 -0.150633 -4.715393 226.210164 -0.000000 0.257834 0.156355 -0.378888
7.655000 13.933094 111.186334 -0.000000 0.236670 0.506675 -0.150738 -6.393535 244.005149 -0.000000 0.262042 0.156428 -0.378989
7.660000 16.602677 100.767770 -0.000000 0.232302 0.506176 -0.150970 -9.688847 263.756919 -0.000000 0.266603 0.156683 -0.379033
7.665000 19.568176 89.465907 -0.000000 0.227523 0.505442 -0.151013 -14.976783 285.072665 -0.000000 0.271396 0.157150 -0.379195
7.670000 22.858689 78.070533 -0.000000 0.222694 0.504428 -0.151102 -22.102076 307.333732 -0.000000 0.276371 0.157866 -0.379297
7.675000 26.364950 67.356955 -0.000000 0.218044 0.503116 -0.151249 -30.774171 329.727857 -0.000000 0.281424 0.158904 -0.379413
7.680000 29.852799 58.038667 -0.000000 0.213487 0.501576 -0.151349 -40.826050 351.239163 -0.000000 0.286525 0.160223 -0.379509
7.685000 33.128293 50.678857 -0.000000 0.209007 0.499861 -0.151352 -51.776858 370.795919 -0.000000 0.291558 0.161756 -0.379557
7.690000 36.038701 45.657697 -0.000000 0.204741 0.497880 -0.151344 -62.951737 387.444590 -0.000000 0.296436 0.163506 -0.379605
7.695000 38.474009 43.176273 -0.000000 0.200660 0.495583 -0.151345 -73.789139 400.380215 -0.000000 0.301078 0.165433 -0.379650
7.700000 40.424989 43.216386 -0.000000 0.196837 0.493121 -0.151269 -83.598816 409.013271 -0.000000 0.305464 0.167460 -0.379681
7.705000 41.967544 45.542796 -0.000000 0.193284 0.490768 -0.151146 -91.628030 413.068143 -0.000000 0.309480 0.169500 -0.379715
7.710000 43.188371 49.770234 -0.000000 0.189977 0.488599 -0.151030 -97.504915 412.537576 -0.000000 0.313152 0.171468 -0.379720
7.715000 44.179770 55.376366 -0.000000 0.186919 0.486553 -0.150888 -101.098202 407.651280 -0.000000 0.316488 0.173441 -0.379772
7.720000 45.056913 61.731174 -0.000000 0.183948 0.484683 -0.150727 -102.446853 398.890605 -0.000000 0.319482 0.175249 -0.379776
7.725000 45.993613 68.155918 -0.000000 0.181283 0.483077 -0.150555 -101.534722 387.069186 -0.000000 0.322169 0.177003 -0.379839
7.730000 47.076064 74.112552 -0.000000 0.178677 0.481648 -0.150366 -98.955340 373.071254 -0.000000 0.324626 0.178460 -0.379846
7.735000 48.313859 79.234838 -0.000000 0.175995 0.480395 -0.150114 -95.465768 357.849480 -0.000000 0.326906 0.179920 -0.379886
7.740000 49.841013 83.225431 -0.000000 0.173622 0.479249 -0.150033 -91.107285 342.605058 -0.000000 0.328972 0.181260 -0.379937
7.745000 51.604150 86.053628 -0.000000 0.171359 0.478238 -0.150086 -86.716905 328.284013 -0.000000 0.330999 0.182513 -0.379934
7.750000 53.580840 87.818883 -0.000000 0.169017 0.477273 -0.150097 -82.852770 315.721931 -0.000000 0.332908 0.183735 -0.380003
7.755000 55.736115 88.759992 -0.000000 0.166663 0.476076 -0.150080 -80.002894 305.519565 -0.000000 0.334808 0.185015 -0.380033
7.760000 58.098338 89.159360 -0.000000 0.164190 0.474772 -0.150178 -78.294409 298.087461 -0.000000 0.336668 0.186267 -0.380085
7.765000 60.712793 89.294246 -0.000000 0.161779 0.473611 -0.150224 -77.605947 293.561783 -0.000000 0.338545 0.187582 -0.380147
7.770000 63.463992 89.490770 -0.000000 0.159427 0.471969 -0.150220 -78.135952 291.698309 -0.000000 0.340352 0.188992 -0.380187
7.775000 66.328865 89.927313 -0.000000 0.157134 0.470429 -0.150196 -79.648503 292.217533 -0.000000 0.342212 0.190480 -0.380239
7.780000 69.208402 90.745478 -0.000000 0.155126 0.468630 -0.150221 -82.078849 294.680889 -0.000000 0.344043 0.192085 -0.380277
7.785000 71.899948 92.088346 -0.000000 0.152830 0.466875 -0.149920 -85.610864 298.416120 -0.000000 0.345869 0.193819 -0.380266
7.790000 74.327985 93.940212 -0.000000 0.150391 0.464919 -0.149942 -89.963344 302.795601 -0.000000 0.347599 0.195577 -0.380310
7.795000 76.531281 96.147236 -0.000000 0.148295 0.463024 -0.149963 -94.516329 307.357564 -0.000000 0.349310 0.197358 -0.380325
7.800000 78.409069 98.641164 -0.000000 0.146364 0.461131 -0.149994 -99.204540 311.598799 -0.000000 0.350962 0.199135 -0.380321
7.805000 79.923782 101.304232 -0.000000 0.144419 0.459366 -0.149851 -103.924954 315.186899 -0.000000 0.352544 0.200909 -0.380304
7.810000 81.130343 103.971014 -0.000000 0.142605 0.457614 -0.149697 -108.471542 318.024542 -0.000000 0.354019 0.202613 -0.380307
7.815000 82.139733 106.476228 -0.000000 0.141079 0.455991 -0.149710 -112.605027 320.187579 -0.000000 0.355412 0.204220 -0.380278
7.820000 82.970490 108.771011 -0.000000 0.139632 0.454479 -0.149596 -116.445767 321.714011 -0.000000 0.356750 0.205652 -0.380148
7.825000 83.702848 110.794465 -0.000000 0.138319 0.453064 -0.149583 -119.988547 322.716698 -0.000000 0.357955 0.206997 -0.380087
7.830000 84.515613 112.440176 -0.000000 0.137308 0.451890 -0.149970 -122.981534 323.387703 -0.000000 0.359003 0.208176 -0.380103
7.835000 85.361637 113.780292 -0.000000 0.136387 0.450829 -0.149786 -125.780730 323.670732 -0.000000 0.359989 0.209221 -0.380114
7.840000 86.296083 114.787003 -0.000000 0.135447 0.450016 -0.149824 -128.301937 323.697540 -0.000000 0.360848 0.210099 -0.380134
7.845000 87.253738 115.490901 -0.000000 0.134631 0.449340 -0.149737 -130.634200 323.558930 -0.000000 0.361666 0.210858 -0.380143
7.850000 88.164591 115.908118 -0.000000 0.133834 0.448788 -0.149531 -132.769921 323.360827 -0.000000 0.362357 0.211444 -0.380139
